<?xml version="1.0" encoding="UTF-8"?>
<svg version="1.1" xmlns="http://www.w3.org/2000/svg" width="32" height="32">
<path d="M0 0 C10.56 0 21.12 0 32 0 C32 10.56 32 21.12 32 32 C21.44 32 10.88 32 0 32 C0 21.44 0 10.88 0 0 Z " fill="#2A2C28" transform="translate(0,0)"/>
<path d="M0 0 C4.62 0 9.24 0 14 0 C14 4.62 14 9.24 14 14 C3.94140625 14.09765625 3.94140625 14.09765625 1 14 C-0 13 -0 13 -0.09765625 10.05859375 C-0.06510417 6.70572917 -0.03255208 3.35286458 0 0 Z " fill="#D6D6D6" transform="translate(1,17)"/>
<path d="M0 0 C10.05859375 -0.09765625 10.05859375 -0.09765625 13 0 C14 1 14 1 14.09765625 3.94140625 C14.06510417 7.29427083 14.03255208 10.64713542 14 14 C9.38 14 4.76 14 0 14 C0 9.38 0 4.76 0 0 Z " fill="#DCAE38" transform="translate(17,1)"/>
<path d="M0 0 C3.35286458 0.03255208 6.70572917 0.06510417 10.05859375 0.09765625 C10.05859375 4.71765625 10.05859375 9.33765625 10.05859375 14.09765625 C5.43859375 14.09765625 0.81859375 14.09765625 -3.94140625 14.09765625 C-4.0390625 4.0390625 -4.0390625 4.0390625 -3.94140625 1.09765625 C-2.94140625 0.09765625 -2.94140625 0.09765625 0 0 Z " fill="#7ECBE7" transform="translate(4.94140625,0.90234375)"/>
<path d="M0 0 C4.29 0 8.58 0 13 0 C13 4.62 13 9.24 13 14 C8.71 14 4.42 14 0 14 C0 9.38 0 4.76 0 0 Z " fill="#C1C1C1" transform="translate(17,17)"/>
<path d="M0 0 C2.4375 0.875 2.4375 0.875 4.4375 3.875 C3.92025862 7.39224138 3.92025862 7.39224138 2.4375 8.875 C-1 9.0625 -1 9.0625 -4.5625 8.875 C-5.2225 8.215 -5.8825 7.555 -6.5625 6.875 C-6.32818263 4.45372051 -5.69231957 3.06323837 -4.3125 1.0625 C-2.5625 -0.125 -2.5625 -0.125 0 0 Z " fill="#323E42" transform="translate(9.5625,4.125)"/>
<path d="M0 0 C0.99 0.33 1.98 0.66 3 1 C3 1.99 3 2.98 3 4 C7.07263278 3.54748525 9.34869468 3.20947486 12 0 C12.33 0 12.66 0 13 0 C13 2.31 13 4.62 13 7 C8.71 7 4.42 7 0 7 C0 4.69 0 2.38 0 0 Z " fill="#F6C23E" transform="translate(17,8)"/>
<path d="M0 0 C0.625 1.8125 0.625 1.8125 1 4 C-1 7 -1 7 -4 8 C-4.99 7.67 -5.98 7.34 -7 7 C-8.17755913 4.05610218 -8.03348696 3.10046087 -7 0 C-3.86650268 -1.04449911 -3.01031744 -0.93423645 0 0 Z " fill="#8C3B29" transform="translate(27,5)"/>
<path d="M0 0 C0.5259375 0.7425 0.5259375 0.7425 1.0625 1.5 C3.97898206 3.7579216 6.41642819 3.25596941 10 3 C10.99 2.67 11.98 2.34 13 2 C13 3.32 13 4.64 13 6 C8.71 6 4.42 6 0 6 C0 4.02 0 2.04 0 0 Z " fill="#89DBF9" transform="translate(2,9)"/>
<path d="M0 0 C0.99 0.495 0.99 0.495 2 1 C2 1.66 2 2.32 2 3 C2.99 3.33 3.98 3.66 5 4 C5 4.66 5 5.32 5 6 C6.32 5.67 7.64 5.34 9 5 C8.67 5.99 8.34 6.98 8 8 C5.36 8 2.72 8 0 8 C0 5.36 0 2.72 0 0 Z " fill="#E1E1E1" transform="translate(2,22)"/>
<path d="M0 0 C1.32 0 2.64 0 4 0 C3.67 1.32 3.34 2.64 3 4 C4.32 3.67 5.64 3.34 7 3 C6.67 4.32 6.34 5.64 6 7 C5.01 6.34 4.02 5.68 3 5 C3.33 6.32 3.66 7.64 4 9 C1 9 1 9 -0.6875 7.5 C-1.120625 7.005 -1.55375 6.51 -2 6 C-1.67 5.01 -1.34 4.02 -1 3 C-0.01 3.33 0.98 3.66 2 4 C1.34 2.68 0.68 1.36 0 0 Z " fill="#2E2E2E" transform="translate(6,19)"/>
<path d="M0 0 C0.99 0.33 1.98 0.66 3 1 C3.33 2.65 3.66 4.3 4 6 C1.36 6 -1.28 6 -4 6 C-2.84826645 3.53199953 -1.95216435 1.95216435 0 0 Z " fill="#DEDEDE" transform="translate(8,5)"/>
<path d="M0 0 C0.66 0 1.32 0 2 0 C2.33 2.31 2.66 4.62 3 7 C1.68 7.33 0.36 7.66 -1 8 C-1.625 5.6875 -1.625 5.6875 -2 3 C-1.34 2.01 -0.68 1.02 0 0 Z " fill="#3B545D" transform="translate(23,20)"/>
<path d="M0 0 C1.32 0.33 2.64 0.66 4 1 C4.625 2.8125 4.625 2.8125 5 5 C3 8 3 8 0 9 C0 8.34 0 7.68 0 7 C-0.66 7 -1.32 7 -2 7 C-1.67 6.34 -1.34 5.68 -1 5 C-0.01 5.33 0.98 5.66 2 6 C2 4.68 2 3.36 2 2 C1.34 2 0.68 2 0 2 C0 1.34 0 0.68 0 0 Z " fill="#29160B" transform="translate(23,4)"/>
</svg>
